<svg width="317" height="313" viewBox="0 0 317 313" fill="none" xmlns="http://www.w3.org/2000/svg">
<path d="M4.05178 309V4H313V309H4.05178Z" fill="white" stroke="black" stroke-width="8"/>
<path d="M4 4H54.7508V309H4V4Z" fill="#7DE0C3" stroke="black" stroke-width="8"/>
<path d="M220.874 22.5C220.874 22.5995 220.841 23.1497 219.793 24.1747C218.738 25.2063 216.968 26.3931 214.327 27.6423C209.067 30.1311 201.199 32.4781 191.157 34.4877C171.138 38.4937 143.304 41 112.437 41C81.5696 41 53.7358 38.4937 33.7169 34.4877C23.6745 32.4781 15.807 30.1311 10.5465 27.6423C7.90617 26.3931 6.1359 25.2063 5.081 24.1747C4.03287 23.1497 4 22.5995 4 22.5C4 22.4005 4.03287 21.8503 5.081 20.8253C6.1359 19.7937 7.90617 18.6069 10.5465 17.3577C15.807 14.8689 23.6745 12.5219 33.7169 10.5123C53.7358 6.50632 81.5696 4 112.437 4C143.304 4 171.138 6.50632 191.157 10.5123C201.199 12.5219 209.067 14.8689 214.327 17.3577C216.968 18.6069 218.738 19.7937 219.793 20.8253C220.841 21.8503 220.874 22.4005 220.874 22.5Z" fill="#32ABE2" stroke="black" stroke-width="8"/>
<path d="M131.492 21C131.492 31.4934 122.875 40 112.246 40C101.617 40 93 31.4934 93 21C93 10.5066 101.617 2 112.246 2C122.875 2 131.492 10.5066 131.492 21Z" fill="black"/>
<path d="M154.878 127.133L276.627 4H313V279.388V308H118V279.388V235.96H220.552V193.042H182.663L208.933 160.854V127.133H154.878Z" fill="#E85E5B"/>
<path d="M118 279.388V235.96H220.552V193.042H182.663L208.933 160.854V127.133H154.878L276.627 4H313V279.388M118 279.388V308H313V279.388M118 279.388H313" stroke="black" stroke-width="8" stroke-linejoin="round"/>
<rect x="121.553" y="284" width="187.395" height="21" fill="#EFAE43"/>
<path d="M279.573 85C279.573 96.0457 270.503 105 259.314 105C248.125 105 239.055 96.0457 239.055 85C239.055 73.9543 248.125 65 259.314 65C270.503 65 279.573 73.9543 279.573 85Z" fill="black"/>
</svg>
